<?xml version="1.0" encoding="UTF-8" standalone="no"?>
<svg
   width="1416"
   height="672"
   version="1.1"
   id="svg812"
   sodipodi:docname="CE__zAE_E_ACIA.svg"
   inkscape:version="1.2.2 (732a01da63, 2022-12-09)"
   xmlns:inkscape="http://www.inkscape.org/namespaces/inkscape"
   xmlns:sodipodi="http://sodipodi.sourceforge.net/DTD/sodipodi-0.dtd"
   xmlns="http://www.w3.org/2000/svg"
   xmlns:svg="http://www.w3.org/2000/svg">
  <defs
     id="defs816" />
  <sodipodi:namedview
     id="namedview814"
     pagecolor="#ffffff"
     bordercolor="#000000"
     borderopacity="0.25"
     inkscape:showpageshadow="2"
     inkscape:pageopacity="0.0"
     inkscape:pagecheckerboard="0"
     inkscape:deskcolor="#d1d1d1"
     showgrid="false"
     inkscape:zoom="2.6925987"
     inkscape:cx="1029.1173"
     inkscape:cy="90.990165"
     inkscape:window-width="1920"
     inkscape:window-height="1017"
     inkscape:window-x="-8"
     inkscape:window-y="-8"
     inkscape:window-maximized="1"
     inkscape:current-layer="svg812" />
  <path
     style="fill:#ffffff; stroke:none;"
     d="M0 0L0 672L1416 672L1416 0L0 0z"
     id="path410" />
  <path
     style="fill:#bababa;stroke:none"
     d="m 1155,46 c 3.08,0.0725 13.27,1.2529 9.2,6.6929 -2.64,3.5244 -6.31,0.5482 -9.29,-0.5641 -3.58,-1.336 -8.36,-1.7557 -11.91,-0.1404 -4.32,1.9652 -7.93,5.7154 -12,8.1868 -9.45,5.7432 -19.96,10.0281 -27.99,17.8649 -5.67,5.5448 -8.97,12.4719 -13.37,18.9599 -3.8,5.611 -9.28,10.153 -10.64,17 4.21,2.116 14.71,2.053 16.05,7.057 0.6,2.228 -0.5,4.804 -1.05,6.943 -6.15,-1.444 -11.7,0.275 -18,-1 -0.1,5.022 -0.68,9.963 -4.23,13.826 -2.89,3.145 -7.77,5.222 -9.26,9.474 -2.76,7.893 3.71,14.078 6.49,20.7 -6.53,-4.825 -11.78,-9.458 -20,-6 -4.7,-13.119 -22.39,-8.048 -27.55,2 -2.7,5.268 -2.2,12.55 -7.64,16.242 -3.53,2.403 -7.02,-0.122 -10.81,0.191 -3.786,0.313 -7.374,2.53 -11,3.567 1.62,-7.786 -6.863,-8.974 -11.397,-3.581 -4.128,4.91 0.941,11.849 -3.603,16.581 v -8 c -2.953,0.564 -5.316,1.645 -8,3 1.817,-2.34 3.194,-4.146 4,-7 -7.836,2.262 -14.088,7.819 -22,10 0.6,5.404 -2.684,8.945 -4,14 2.447,-0.309 3.834,-0.805 6,-2 1.277,5.094 4.552,8.296 6,13 -7.41,-0.913 -9.279,0.841 -6,8 -3.603,-0.824 -8.155,-2.874 -11.816,-1.393 -3.808,1.542 -4.971,6.622 -9.194,7.53 -1.965,0.423 -4.149,-0.584 -5.99,-1.137 0.072,3.473 0.713,6.6 1.33,10 1.472,8.114 -4.881,8.375 -10.312,4.362 -4.541,-3.356 -4.885,-7.613 -7.436,-12.153 -1.37,-2.438 -3.875,-3.884 -5.284,-6.312 -1.416,-2.441 -1.804,-5.178 -4.442,-6.718 -5.929,-3.46 -9.496,1.584 -14.871,2.338 -3.062,0.429 -6.617,-1.416 -9.547,0.087 -5.601,2.874 4.258,10.406 -0.761,14.654 -2.844,2.407 -14.043,4.424 -17.398,2.626 -2.212,-1.185 -2.699,-3.689 -3.279,-5.884 -6.908,0.297 -12.447,3.094 -19,4.353 -2.38,0.458 -4.63,-0.62 -6.999,-0.27 -6.25,0.923 -8.675,5.341 -10.001,10.917 2.598,2.686 3.238,5.827 5.086,9 1.913,3.287 5.161,5.614 6.89,9 1.116,2.185 1.037,4.698 1.912,6.961 0.819,2.117 3.607,4.508 3.195,6.916 -0.516,3.017 -6.45683,6.17883 -8.07183,8.95383 -2.744,4.717 -2.39923,9.47917 -3.32317,13.85217 -1.094,2.138 -3.778,2.288 -5.689,3.325 -2.903,1.575 -5.298,4.099 -7.999,5.992 2.882,12.161 15.278,30.627 2,40 v 2 c 5.07,3.188 3.325,5.926 4.865,11 1.024,3.375 4.138,6.419 4.333,10 0.157,2.887 -2.08,5.294 -2.769,8 -0.731,2.874 -0.429,6.06 -0.429,9 7.499,0.067 20.499,0.302 19,10 7.75,2.644 7.054,7.458 9.738,13.91 1.113,2.676 3.645,4.401 4.662,7.129 2.497,6.692 1.267,11.074 8.6,14.961 -2.781,7.615 -2.583,15.09 -3.575,22.999 -0.428,3.415 -0.597,7.948 3.764,8.678 6.155,1.032 8.962,-5.674 13.977,-7.479 3.421,-1.231 6.656,1.917 9.834,2.802 1.797,-3.929 4.878,-7.033 6.637,-11 2.873,-6.482 3.344,-19.961 14.179,-16.489 5.062,1.622 5.261,8.003 9.563,9.866 3.11,1.348 6.329,-2.708 9.072,-0.63 2.31,1.75 2.328,5.711 3.828,8.069 1.832,2.881 4.831,4.559 7.721,6.184 -4.159,3.103 -7.966,2.999 -13,3 v 14 l 6,1 c -0.22,7.357 -4.393,12.174 -12,11 l 1,-5 c -8.328,1.297 -8.9,10.399 -15.456,14.316 -4.552,2.72 -16.686,-0.84 -21.544,-2.316 -0.562,1.8 -0.824,3.122 -1,5 -6.194,0.005 -8.931,1.318 -14.07,4.606 -1.558,0.997 -3.599,1.767 -4.268,3.669 -1.078,3.065 1.928,5.49 1.955,8.439 0.023,2.548 -1.606,4.598 -1.23,7.29 0.764,5.462 4.272,10.329 5.01,15.996 0.699,5.371 -1.61,11.97 -3.375,17 -2.554,7.275 -8.815,10.74 -13.632,16.184 -2.572,2.907 -3.678,6.712 -6.027,9.761 -3.441,4.465 -7.158,4.878 -7.363,11.055 -2.854,0.806 -4.66,2.183 -7,4 -0.37,-4.751 -2.292,-4.702 -5.51,-7.569 -2.57,-2.289 -4.036,-5.165 -7.081,-7.051 -7.246,-4.49 -20.305,-6.559 -21.409,-16.38 -6.798,0.517 -20.063,12.831 -11.852,19.297 8.168,6.432 21.415,4.22 29.744,10.406 4.941,3.67 4.259,11.627 10.213,14.032 10.784,4.358 18.603,-7.29 28.895,-6.313 4.288,0.407 12.943,3.529 16.391,6.087 2.408,1.787 3.8,4.294 6.702,5.496 6.254,2.591 16.619,1.416 22.907,-0.6 8.249,-2.644 15.829,-8.201 21.6,-14.589 2.856,-3.162 5.394,-9.943 9.505,-11.463 3.13,-1.156 6.738,1.219 9.895,1.419 3.992,0.254 7.14,-2.512 11,-2.488 5.224,0.033 9.479,3.8 14.985,2.282 4.383,-1.209 9.34,-7.421 10.897,-11.566 1.609,-4.282 -2.506,-8.575 -2.353,-13 0.324,-9.317 4.445,-17.677 4.471,-27 h -10 c 4.721,-17.252 18.491,-23.907 35,-25.09 6.24,-0.448 10.4,-1.35 16,2.338 8.44,5.564 15.11,13.971 21.4,21.748 3.62,4.473 7.67,10.316 12.6,13.397 5.25,3.28 10.02,-1 15,-2.54 4.13,-1.276 11.95,-0.713 15.98,0.889 6.02,2.395 5.16,11.976 12.06,12.155 14.31,0.372 17.62,-20.959 26.96,-27.897 1.7,3.539 3.18,5.824 7,7 -3.02,16.277 5,31.684 5,48 -3.39,0 -7.58,-0.652 -10.85,0.318 -3,0.888 -3.31,4.047 -4.01,6.683 -2.47,9.426 8.21,16.298 11.16,24.998 2.14,6.343 -4.62,10.763 0.7,16.001 0.38,-3.527 2.9,-4.241 4.26,-7.263 1.53,-3.405 -0.27,-8.767 3.85,-10.82 2.79,-1.39 5.88,2.038 8.9,1.811 8.06,-0.605 12.68,-10.162 15.17,-16.728 5.64,-14.807 4.75,-32.416 4.82,-48 0.03,-5.688 1.42,-11.303 0.9,-17 -0.59,-6.363 -2.84,-12.562 -3.44,-19 -0.68,-7.461 2.9,-14.449 0.75,-22 -2.54,-8.956 -9.85,-16.136 -14.54,-24 -6.02,-10.097 -6.35,-30.404 -20.67,-32 l 3,-7 c -2.95,0 -6.15,0.314 -9,-0.559 -5.31,-1.627 -9.15,-4.895 -14.98,-2.432 -8.04,3.397 -2.34,9.063 -3.83,14.817 -0.66,2.537 -4.04,5.106 -6.54,3.431 -1.94,-1.296 -2.72,-3.843 -4.65,-5.257 v 8 c -2.73,-2.902 -3.25,-6.149 -4,-10 -4.78,0.053 -7.6,1.663 -11.98,3.147 -1.4,0.473 -2.95,0.776 -3.95,-0.598 -1.48,-2.021 -0.25,-5.435 0.37,-7.549 1.94,-6.675 4.69,-13.034 5.51,-20 0.87,-7.409 0.13,-14.673 0.71,-22 0.42,-5.15 2.33,-9.667 2.34,-15 0.01,-7.559 -1.8,-17.858 1.15,-24.957 1.5,-3.62 4.79,-5.057 7.53,-7.568 4.74,-4.35 7.46,-8.715 14.32,-9.475 1.14,-7.399 9.13,-11.231 15,-15 -0.68,-2.377 -2.43,-5.452 -2.01,-7.957 0.99,-5.909 14.13,-10.011 19.01,-12.043 l -1,9 c 6.47,-3.917 7.87,-10.756 11,-17 2.16,-4.306 5.11,-7.096 6,-12 -3.58,1.594 -6.6,4.045 -10,6 -2.88,-9.084 -2.67,-18.734 -4.63,-28 -0.86,-4.058 -3.71,-7.721 -2.96,-12 1.4,-7.977 10.02,-11.695 10.59,-19 3.15,3.121 4.78,7.189 7,11 h 2 l 1,-3 c 2.35,1.612 4.28,3.159 7,4 -0.13,-5.445 -2.48,-9.766 -3.47,-15 -0.7,-3.719 0.72,-7.29 0.32,-11 -0.6,-5.638 -5.14,-8.752 -9.85,-11 1.83,-5.226 4.48,-8.785 9,-12 -0.97,4.078 -1.78,8.936 0.32,12.83 4.13,7.668 12.44,9.362 13.51,19.17 0.73,6.709 -0.26,13.329 1.18,20 2.12,9.791 6.51,18.928 7.7,29 0.58,4.969 -2.46,9.279 -2.07,14 0.3,3.624 3.65,5.917 5.18,9 2.6,5.209 1.95,10.902 5.4,16 10.27,15.174 25.63,22.911 40.78,32 7.9,4.741 17.01,11.938 26,14 0,-7.432 -0.02,-16.082 -3.11,-22.985 -2.93,-6.55 -14.19,-10.275 -7.36,-18.506 0.91,-1.105 2.29,-1.761 3.47,-2.509 v -2 c -6.1,-2.901 -14.14,-9.148 -12.65,-16.985 0.79,-4.093 5.93,-7.081 4.03,-11.687 -1.59,-3.866 -7.28,-5.293 -10.28,-7.857 -3.74,-3.199 -5.77,-7.846 -7.1,-12.471 2.01,1.262 3.78,2.19 6,3 2.02,-9.718 -8.13,-6.824 -13.89,-10.843 -2.64,-1.837 -8.75,-14.986 -10.05,-4.182 -0.16,1.302 -0.06,2.721 -0.06,4.025 -8.41,-4.018 -11.49,-15.329 -15.87,-23 -1.48,-2.594 -4.55,-5.805 -4.54,-8.945 0,-3.282 3.82,-3.714 4.66,-6.43 0.65,-2.058 -1.17,-3.916 -1.67,-5.795 -0.66,-2.536 0.1,-5.288 0.42,-7.83 2.73,2.055 4.94,4.462 8,6 -0.5,-4.61 -3.39,-8.428 -3.77,-13 -0.82,-9.893 8.55,-13.931 16.77,-14 -1.31,-7.394 -4.83,-14.736 -6.96,-22 -3.45,-11.738 -5.94,-24.817 -6.87,-37 -0.6,-7.896 12.05,-13.46 7.8,-20.852 -1.29,-2.231 -3.57,-2.879 -5.97,-3.089 -6.34,-0.556 -18.5,-2.886 -23.96,0.683 -2.85,1.863 -6.41,9.642 -10.67,7.024 -2.27,-1.401 -0.66,-3.597 0.8,-4.819 6.4,-5.373 10.71,-11.267 5.53,-19.8382 -2.71,-4.479 -7.46,-3.8945 -11.68,-5.8117 -1.6,-0.7307 -3.74,-2.1012 -3.39,-4.1891 0.82,-4.8273 8.96,-0.9333 11.77,-3.1366 3.33,-2.6154 0.16,-8.3781 3.34,-11.2785 2.53,-2.3026 7.06,-0.1429 10.12,-1.0116 2.69,-0.7672 3.46,-3.4368 5.44,-5.1265 5.56,-4.7423 9.5,-5.2257 9.7,-13.5548 -8.16,1.3181 -11.86,-6.3619 -20,-3 2.24,-4.4615 6.25,-18.429 -3.17,-18.3311 C 1164.35,26.7778 1157.29,37.2734 1155,46 Z"
     id="path412"
     sodipodi:nodetypes="cccccccccccscccccccsccccccccccccccsccccsccccccccccccccccccccscccccccscsccccccccccssccccsccccccsccscccccccccccccccccccccccccccsccccccccccccccccccccccccccccccccccccccccccccccccccccccccccccccccccccccccccccscccccccccccsc" />
  <path
     style="fill:#dedede; stroke:none;"
     d="M750 123C748.386 124.646 746.061 125.849 744.637 127.635C743.169 129.477 743.702 131.74 742.901 133.816C742.033 136.069 740.079 137.83 739 140C745.811 145.393 749.183 144.014 757 141C755.726 136.536 756.706 133.473 757 129C754.197 127.482 753.332 125.892 752 123L750 123z"
     id="path454" />
  <path
     style="fill:#bababa; stroke:none;"
     d="M952 146C947.814 145.118 945.947 145.662 945 150L941 148C942.266 155.936 952.611 154.561 957.721 150.297C960.296 148.15 960.716 145.125 961 142C956.774 142.015 953.722 141.716 952 146z"
     id="path464" />
  <path
     style="fill:#dedede; stroke:none;"
     d="M760 145C759.251 147.254 758.656 148.314 757 150L758 143C752.579 143.801 745.622 146.615 744.858 153.08C744.13 159.244 754.497 166.628 759.891 166.638C764.363 166.647 763.293 161.977 763.255 159C763.19 153.898 766.255 147.076 760 145z"
     id="path466" />
  <path
     style="fill:#dcdcdc; stroke:none;"
     d="M738 145C738.55 148.599 739.723 150.377 743 152C745.212 146.875 743.227 145.174 738 145z"
     id="path470" />
  <path
     style="fill:#bababa; stroke:none;"
     d="M920 154C920.19 156.971 920.834 159.26 922 162C919.039 161.563 914.152 159.09 911.318 160.353C907.848 161.9 909.145 168.935 909 172C911.905 173.577 912.766 176.198 915.299 178.157C918.277 180.461 922.389 180.835 926 181C926.46 174.97 930.878 168.967 937 168L937 165C931.468 164.259 928.303 161.436 927 156L930 156C930.667 161.84 933.509 162.889 939 162C938.896 158.415 938.063 155.406 937 152C931.124 152.005 925.777 154.107 920 154z"
     id="path478" />
  <path
     style="fill:#dedede; stroke:none;"
     d="M764 181C768.589 179.722 777.474 176.305 780.681 172.773C785.809 167.128 779.686 161.64 774 161L773 165C772.792 161.891 773.554 159.086 774 156C769.132 157.376 769.433 160.649 768.216 165.001C766.708 170.393 764.492 175.363 764 181z"
     id="path490" />
  <path
     style="fill:#f1f0ec;stroke:none"
     d="m 384,202 c -0.301,3.952 -1.118,5.822 -5,7 -0.65,5.815 -3.271,7.814 -9,8 -0.002,3.359 0.026,6.686 -0.62,9.999 -2.354,12.081 -21.839,9.886 -31.38,8.715 -3.104,-0.382 -7.706,-2.196 -10.656,-0.597 -9.297,5.042 4.403,16.056 -4.344,20.883 -0.026,-9.052 -3.834,-12.416 -13,-13 v 4 c -4.385,0.346 -10.122,0.306 -13.996,2.514 -5.291,3.015 -7.497,7.994 -14.004,8.486 v 7 c -5.613,0.444 -5.945,3.403 -8.28,7.91 -1.046,2.02 -3.001,3.795 -3.134,6.18 -0.113,2.042 1.113,3.895 1.275,5.908 0.183,2.281 -0.605,4.736 -0.861,7.002 4.269,1.571 4.899,3.666 4,8 2.116,0.281 1.938,0.6 3,-1 4.237,2.158 8.196,1.662 10.491,-3.044 0.931,-1.909 1.131,-5.764 3.698,-6.34 2.031,-0.456 4.151,1.945 5.901,2.662 3.854,1.578 9.72949,3.71488 13.76349,4.75188 3.533,0.909 5.63051,-1.90988 9.03751,-1.50488 2.639,0.314 3.317,2.323 4.109,4.475 5.428,1.211 9.6946,4.48371 13.7526,8.37871 l 7.18175,-1.19696 L 346,315 h -5 c -0.865,2.214 -2.284,4.529 -2.577,6.912 -0.213,1.725 0.675,3.519 0.094,5.204 -1.459,4.23 -7.071,5.072 -7.989,9.888 -1.735,9.092 7.74,5.253 12.472,5.47 6.822,0.313 12.985,-3.399 18.911,-6.615 2.449,-1.329 4.33,-3.583 7.128,-4.244 3.018,-0.713 6.082,0.625 8.961,1.385 l 1,-3 c 4.737,8.552 16.167,26.366 28,20.683 8.722,-4.189 11.491,-13.566 22,-13.683 -0.028,8.253 -3.621,12.216 -6.937,19.246 -1.308,2.774 0.604,5.99714 -1.063,8.67314 1.506,0.683 2.315,-0.0931 4,0.0809 v 5 c 5.008,-2.414 9.729,-1.759 15,-3 0.813,3.773 6.114,3.238 8.667,0.667 1.503,-1.514 1.292,-3.719 1.333,-5.667 h 11 v 6 c 3.294,1.168 5.67,4.284 9.104,4.853 5.446,0.902 11.519,-1.06 16.806,0.85 5.363,1.937 11.4441,10.43375 17.9321,6.45075 5.703,-3.501 6.5049,-13.43575 8.7199,-19.15375 1.935,-4.995 6.234,-7.774 9.098,-12.09 2.215,-3.337 2.856,-7.933 6.433,-10.253 3.094,-2.005 6.536,0.549 9.922,-0.681 8.196,-2.979 15.755,-8.35 23.985,-11.509 6.041,-2.319 13.476,-2.389 18.196,-7.395 3.262,-3.459 1.467,-5.931 1.572,-9.982 0.07,-2.709 2.395,-4.521 2.876,-7.129 1.09,-5.919 -2.407,-8.528 3.356,-12.961 -2.94,-7.325 -13.166,-16.791 -21,-18 1.573,-2.115 2.352,-3.47 3,-6 -4.047,-3.879 -4.046,-8.077 -10,-4 1.335,3.053 3.625,5.789 4.567,9 1.339,4.563 0.433,10.272 0.433,15 -2.73,-0.117 -5.314,-0.499 -8,-1 l -2,6 -4,-1 c 1.388,-3.539 3.892,-6.409 5,-10 -4.207,0 -8.972,0.591 -12.96,-0.995 -2.4,-0.954 -4.149,-3.237 -6.554,-4.034 -2.124,-0.703 -4.173,0.529 -6.317,0.275 -3.229,-0.382 -6.121,-2.971 -8.169,-5.246 3.649,-1.003 6.441,-3.616 10,-5 -4.242,-2.039 -8.997,-2.978 -11,2 h -3 l -1,-5 c -4.938,0 -10.09,0.422 -15,-0.129 -8.783,-0.986 -14.984,-3.407 -20,6.129 h -3 c -1.226,-2.035 -1.703,-2.326 -4,-3 0,-4.134 -1.487,-12.892 4.059,-14.137 2.91,-0.654 6.88,1.048 9.941,1.137 1.476,-7.953 -0.089,-18.065 -9,-21 1.012,9.181 -6.872,8.722 -11.393,14.394 -2.319,2.909 -0.19,6.397 -1.724,9.463 -1.627,3.251 -6.91,5.263 -9.883,7.143 l -2,-4 c 1.797,0 1.521,-0.014 3,-1 -0.247,-0.935 -0.411,-2.206 -0.899,-3.102 -3.354,-6.162 -7.949,-1.26 -13.105,-2.411 -4.035,-0.901 -8.553,-4.125 -12.693,-1.459 -3.634,2.34 -4.086,10.079 -5.303,13.972 h -2 c -1.512,-4.787 -4.204,-9.066 -5.402,-14 -0.534,-2.199 -0.134,-5.426 -1.626,-7.258 -1.49,-1.83 -4.766,-1.94 -6.654,-0.71 -4.832,3.144 0.055,8.035 -0.315,11.909 -0.26,2.723 -3.43,4.162 -5.775,2.973 -3.494,-1.774 -3.21,-6.633 -3.227,-9.914 -0.039,-7.442 1.063,-13.242 6.618,-18.722 3.074,-3.033 7.259,-3.791 8.728,-8.297 2.233,-6.845 -0.649,-15.322 4.653,-20.981 10e-4,7.38 1.412,13.877 3.269,21 1.297,4.974 2.573,9.926 5.415,14.285 6.737,10.335 23.227,14.266 30.207,1.7 4.451,-8.013 0.792,-15.835 -0.565,-23.985 -1.685,-10.113 2.687,-28.822 -12.326,-29 v -2 c 1.878,-0.176 3.199,-0.438 5,-1 -1.114,-3.054 -1.833,-5.748 -2,-9 1.539,1.956 2.781,3.83 4,6 2.199,-7.173 -2.996,-7.849 -8,-10.302 -6.091,-2.986 -11.654,-7.808 -18.945,-4.804 -7.091,2.921 -4.718,11.728 -8.793,16.712 -3.337,4.08 -9.086,2.52 -13.074,5.426 -3.126,2.278 -4.285,5.979 -6.588,8.928 -3.544,4.536 -10.113,8.498 -15.6,10.04 z"
     id="path500"
     sodipodi:nodetypes="ccccccccccccccccccscccccccccccccssccsccccccccccccssccccccccccccccccccccccccccccccccccccccccccsccscccccccsccccccccccccc" />
  <path
     style="fill:#f1f0ec; stroke:none;"
     d="M593 183C592.489 184.952 592.267 185.457 591 187L592 191L589 190L584 197C580.034 195.33 577.204 195.234 573 196L573 200C574.949 200.936 575.55 201.392 577 203C574.261 203.211 573.578 203.303 573 206C568.905 204.043 565.926 202.371 565 208L559 207L560 212C556.602 212.268 555.285 212.795 554 216C549.314 214.052 543.622 215.285 545.771 221.907C546.674 224.69 549.821 226.276 550.343 229.184C550.905 232.309 548.136 234.867 548.458 237.999C549.059 243.857 556.891 248.659 562 250C561.885 244.405 560.247 238.678 561.26 233.09C562.64 225.476 570.407 217.507 577 214L576 210C579.76 211.554 582.537 212.389 584 208L591 207L591 203C593.782 202.188 594.627 201.547 596 199L601 200C607.007 195.414 617.338 192.127 625 192.019C632.943 191.906 641.404 194.801 648.196 188.786C651.771 185.62 652.17 177.598 645.995 177.376C642.436 177.248 639.577 180.507 635.985 180.981C633.164 181.353 629.82 182.135 627.015 181.451C624.099 180.741 622.031 178.456 618.911 178.419C609.47 178.307 602.461 183.52 593 183z"
     id="path524" />
  <path
     style="fill:#bababa; stroke:none;"
     d="M941 194C944.213 192.23 950.873 191.349 952.953 188.363C956.497 183.272 946.419 181.236 943.319 183.322C940.17 185.44 941.35 190.72 941 194z"
     id="path532" />
  <path
     style="fill:#dedede;stroke:none"
     d="m 764,207 c 0.749,2.354 1.602,3.95 3,6 -5.436,-0.956 -8.136,0.874 -13,3 0.562,-1.801 0.824,-3.122 1,-5 -5.12,0.753 -9.766,1.986 -15,2 l 2,6 c -10.139,0.442 -26.509,6.802 -29.346,18.015 -1.156,4.567 1.728,10.398 2.346,14.985 -5.048,-2.735 -8.506,-1.866 -14,-2.043 -5.18,-0.168 -11.863,-3.442 -16.852,-1.214 -5.387,2.406 -1.778,9.891 -2.328,14.257 -1.071,8.514 6.387,11.614 8.873,19.09 1.088,3.271 -1.803,5.759 -2.08,8.91 -0.591,6.731 2.961,11.842 -4.613,16 1.096,-4.736 2.776,-9.1 3,-14 -2.42,1.382 -3.061,2.363 -4,5 -0.397,-6.779 4.729,-11.594 6,-18 -9.51,-0.311 -10.396,-13.44 -20,-12 1.604,2.789 6.345,5.659 6.365,8.989 0.02,3.306 -4.024,4.573 -3.837,8.065 0.216,4.051 4.267,7.761 2.39,11.906 -2.543,5.616 -10.272,5.703 -9.791,13.026 0.666,10.131 13.032,7.714 15.255,16.004 1.406,5.245 -2.945,12.792 -7.382,15.01 0.147,7.141 3.018,13.162 3.867,20 0.516,4.151 -0.763,8.937 0.875,12.896 1.033,2.498 3.7,3.803 4.64,6.309 1.245,3.321 -1.922,6.352 -0.725,9.53 1.606,4.26 7.848,4.095 8.086,9.284 0.231,5.035 -4.458,6.54 -6.549,10.306 -1.811,3.26 0.63,6.317 0.083,9.66 -0.751,4.593 -4.899,6.997 -5.277,12.015 h -3 c 0.257,5.883 1.534,10.971 8,12 -2.854,5.71 -10.108,5.005 -12,11 -2.824,-1.33 -5.652,-4.002 -8.989,-3.458 -3.268,0.532 -5.416,4.31 -8.881,3.811 -2.935,-0.422 -5.431,-3.157 -8.134,-4.279 -5.266,-2.186 -11.49,-3.192 -16.996,-4.843 -2.773,-0.832 -5.856,-2.533 -8.815,-1.624 -5.456,1.677 -5.835,8.941 -9.038,12.763 -2.216,2.642 -5.439,3.761 -7.923,6.044 -4.552,4.184 -6.686,10.299 -13.228,12.331 -3.256,1.011 -5.865,-0.91 -8.996,-1.421 -7.088,-1.156 -12.272,-1.058 -17,-7.324 1.618,-1.314 1.693,-1.877 2,-4 -7.506,2.125 -9.746,10.248 -12,17 l 1,1 4,-1 c 1.151,2.987 2.26,5.882 3,9 -2.779,0.581 -6.229,1.011 -8.412,3.005 -2.924,2.672 -2.346,5.656 -6.588,6.995 -0.154,3.365 -1.35,6.667 -1.35,10 0,3.394 1.732,6.559 1.022,10 -0.584,2.832 -2.531,5.37 -3.672,8 3.51,0.965 6.423,0.45 10,0 0.094,2.205 0.356,3.894 1,6 l 4,-1 c 1.465,2.202 2.558,2.953 5,4 l -4,3 v 2 c 11.525,4.81 21.198,-2.492 33,-3 -0.849,1.557 -2.898,3.477 -3.113,5.261 -0.546,4.554 5.998,10.409 7.565,14.739 4.847,13.391 7.379,28.139 10.548,42 2.714,-0.89 4.516,-3.893 7.166,-4.463 4.569,-0.983 5.556,5.41 5.834,8.463 6.056,1.124 14.889,-2.282 19.957,0.908 4.273,2.69 4.353,6.916 7.023,10.597 1.308,1.804 3.443,2.629 4.433,4.718 2.031,4.286 5.097,11.332 11.622,10.048 2.137,-0.421 4.163,-2.139 5.965,-3.271 0.117,4.958 1.339,11.634 8.004,9.397 2.546,-0.855 4.465,-2.9 6.996,-3.799 5.697,-2.024 10.524,-2.771 16,-5.931 8.366,-4.828 15.751,-11.277 26,-10.576 4.423,0.303 10.34,1.366 13.698,4.478 2.318,2.148 2.858,5.501 5.53,7.342 2.871,1.978 6.458,1.899 9.772,2.255 6.026,0.647 13.185,2.105 18.985,-0.394 0.964,-0.416 2.001,-0.934 2.801,-1.626 7.034,-6.085 -0.057,-9.443 -0.369,-16.146 -0.278,-5.975 5.632,-12.586 10.583,-15 -1.759,-1.997 -4.246,-4.108 -4.208,-6.999 0.072,-5.623 9.239,-13.227 14.208,-14.001 0.529,9.572 12.37,12.031 19.714,15.883 3.564,1.869 5.3,4.907 8.085,7.548 2.34,2.219 4.88331,5.96711 7.01531,8.54011 L 836,602 c 0.442,-5.722 4.08,-6.107 7.363,-10.133 2.433,-2.984 3.522,-6.817 6.027,-9.774 4.696,-5.544 11.078,-8.818 13.632,-16.093 1.864,-5.311 4.282,-12.324 3.614,-18 -0.682,-5.792 -4.868,-11.412 -5.069,-16.985 -0.083,-2.302 1.565,-4.089 1.625,-6.301 0.074,-2.74 -2.707,-4.822 -2.275,-7.581 0.379,-2.422 3.123,-3.375 4.918,-4.527 4.772,-3.062 7.373,-4.586 13.165,-4.606 l 1,-5 c 4.552,1.917 17.968,5.482 22.286,2.447 C 908.27,501.241 909.479,493.13 917,491 l -1,5 c 8.108,1.841 11.914,-3.369 12,-11 l -6,-1 v -14 c 4.821,0 9.454,0.728 13,-3 -2.734,-2.127 -5.884,-4.072 -7.721,-7.093 -1.369,-2.251 -1.488,-6.316 -3.828,-7.821 -2.775,-1.785 -5.392,1.997 -8.277,1.167 -4.393,-1.264 -4.776,-8.108 -9.5,-9.743 -11.585,-4.01 -11.859,8.32 -15.037,15.49 -1.91,4.307 -5.367,7.427 -6.637,12 -2.788,-1.246 -5.684,-3.97 -8.925,-3.472 -5.428,0.834 -8.196,8.124 -13.981,7.965 -4.699,-0.129 -4.911,-5.029 -4.514,-8.494 0.911,-7.94 1.358,-15.21 3.42,-22.999 -3.142,-2.446 -5.16983,-5.027 -6.37183,-9 -0.681,-2.25 -1.38217,-4.704 -2.22817,-6.91 -1.035,-2.705 -3.571,-4.435 -4.662,-7.129 -2.547,-6.286 -1.723,-11.338 -9.738,-12.961 2.31,-10.115 -11.401,-9.978 -19,-10 0.002,-2.979 -0.248,-6.136 0.723,-9 0.915,-2.699 3.017,-5.004 2.858,-8 -0.213,-4.026 -3.649,-7.179 -4.641,-11 -1.286,-4.952 0.564,-7.662 -4.94,-10 v -2 c 13.752,-6.763 1.495,-29.669 -2,-40 3.362,-1.565 5.767,-4.226 8.995,-5.992 1.541,-0.843 3.842,-1.048 4.888,-2.607 1.173,-1.747 0.403,-4.425 0.735,-6.401 0.468,-2.78 1.804,-5.548 3.181,-7.985 1.718,-3.037 7.305,-5.815 7.736,-9.138 0.366,-2.823 -2.703,-5.403 -3.647,-7.892 -0.863,-2.273 -0.793,-4.794 -1.912,-6.985 -1.729,-3.385 -4.975,-5.715 -6.89,-9 -1.765,-3.027 -2.112,-5.965 -5.086,-8 1.431,-4.191 2.551,-7.608 7,-9 -2.336,-1.076 -6.224,-2.779 -8.836,-2.138 -4.32,1.06 -1.143,4.835 0.836,6.138 -4.671,6.998 -11.316,9.402 -18,14 5.633,-18.974 39.871,-38.638 18.895,-59.906 -3.24,-3.285 -7.221,-5.681 -11.894,-5.995 -6.149,-0.414 -7.487,5.002 -13.001,5.901 1.305,-3.077 1.903,-5.66 2,-9 h -11 c 1.686,-1.656 2.746,-2.251 5,-3 -0.745,-4.575 -5.109,-8.615 -9.815,-5.381 -3.053,2.098 -5.939,6.966 -7.247,10.381 -1.055,2.757 0.182,6.246 -1.629,8.682 -1.538,2.068 -3.991,2.143 -6.309,2.318 z"
     id="path534"
     sodipodi:nodetypes="ccccccccccccccccccscscccccccsccccccccsccccccccccccccsccccccccccccccccsccccccsscccsccccsccccccscccccsccccccssscccsscccccccscccccscccscscccsccscccccsccc" />
  <path
     style="fill:#f1f0ec; stroke:none;"
     d="M221 248C223.083 247.547 225.066 247.114 226.856 245.852C232.995 241.525 229.228 230.051 222.945 227.889C217.912 226.157 211.572 225.551 213.758 233.001C214.268 234.735 215.117 236.407 215.956 238C217.726 241.361 219.673 244.424 221 248z"
     id="path578" />
  <path
     style="fill:#f3f2f0; stroke:none;"
     d="M544 226C544.173 229.17 544.356 231.136 547 233L547 226L544 226z"
     id="path580" />
  <path
     style="fill:#f0f0ee; stroke:none;"
     d="M505 249C509.73 249 514.442 249.347 519 248C517.665 244.926 515.874 242.248 515 239C508.53 239.895 505.369 242.271 505 249z"
     id="path600" />
  <path
     style="fill:#cbcbcb;stroke:none"
     d="m 589,289 c -6.379,3.219 -2.989,6.413 -3.522,11.985 -0.262,2.732 -2.669,4.522 -3.037,7.185 -0.616,4.468 1.934,7.122 -1.975,10.902 -5.028,4.863 -12.277,5.019 -18.466,7.395 -8.052,3.091 -15.79,9.018 -23.961,11.399 -3.061,0.892 -5.98,-1.404 -8.946,0.18 -3.689,1.971 -4.334,6.668 -6.433,9.915 -2.374,3.672 -6.15,6.139 -8.218,10.043 -1.503,2.838 -1.803,6.083 -3.09,8.996 -4.754,10.759 -12.428,23.881 -20.253,32.721 -2.447,2.765 -7.021,2.182 -9.067,4.879 -1.548,2.038 -1.31983,4.93869 -1.47983,7.26869 C 480.01617,419.63069 479.519,425.122 471,426 c -1.435,4.621 -4.662,4.396 -9,4 l -2,6 c -2.058,0.05 -4.668,-0.182 -6.402,1.179 -7.341,5.762 0.625,15.346 7.402,15.821 -0.906,2.903 -1.313,7.188 -3.023,9.682 -3.241,4.726 -9.755,2.468 -13.977,1.318 2.434,-4.993 -2.854,-8.35 -5.972,-3.682 -0.893,1.337 -2.30806,3.125 -2.27806,4.679 0.192,9.72 13.35006,9.284 20.25006,8.003 -0.924,2.913 -1.914,5.845 -4.482,7.762 -3.054,2.28 -7.17,1.321 -10.37,3.642 -3.378,2.449 -6.085,9.375 -8.286,13.02 -0.783,1.296 -1.363,2.805 -0.645,4.277 1.318,2.705 6.188,3.48 8.783,4.299 l -3,7 8,1 c 0.189,-1.042 0.242,-2.155 0.654,-3.155 3.131,-7.613 8.451,-2.616 14.346,-1.845 -0.818,-2.988 -4.247,-6.63 -2,-9 -0.195,-0.568 -0.787,-1.875 -0.858,-2.575 -0.878,-8.675 8.8,-0.947 11.859,0.015 2.896,0.911 6.042,0.425 8.999,1.089 11.861,2.661 24.726,5.322 37,5.413 4.33,0.032 8.249,-2.273 12.576,-2.045 4.471,0.236 9.199,7.006 13.145,5.757 3.475,-1.099 3.219,-6.839 3.279,-9.654 4.508,-0.783 3.785,-3.451 6.588,-6.349 2.133,-2.204 5.58,-2.83 8.412,-3.651 -0.497,-3.323 -1.439,-6.026 -3,-9 l -4,1 -1,-1 c 3.219,-6.686 4.764,-13.597 12,-17 -0.511,1.952 -0.733,2.457 -2,4 3.257,6.521 9.515,6.771 16,7.52 3.079,0.356 5.829,2.379 8.999,1.897 6.985,-1.061 9.825,-7.82 14.225,-12.194 2.389,-2.375 5.681,-3.523 7.923,-6.07 3.421,-3.888 3.922,-12.19 9.946,-13.379 2.614,-0.516 5.449,1.05 7.907,1.741 5.172,1.454 11.069,2.527 15.999,4.559 2.858,1.178 5.277,3.6 8.272,4.407 4.127,1.113 6.083,-2.803 9.74,-3.516 3.128,-0.61 6.104,2.188 8.989,3.035 2.95,-5.626 10.098,-4.677 12,-11 -5.911,-1.675 -7.527,-6.272 -8,-12 h 3 c 0.692,-4.531 4.374,-6.829 5.443,-11.039 0.836,-3.293 -1.609,-6.602 -0.161,-9.777 2.021,-4.428 6.762,-5.476 6.615,-11.165 -0.146,-5.69 -6.823,-5.269 -8.034,-10.104 -0.713,-2.844 1.634,-5.669 0.815,-8.71 -0.786,-2.918 -3.823,-4.445 -4.936,-7.248 -1.598,-4.021 -0.354,-8.761 -0.875,-12.957 -0.803,-6.472 -3.578,-12.264 -3.867,-19 5.31,-1.598 9.21,-10.53 7.431,-15.985 -2.351,-7.209 -13.145,-5.489 -14.993,-14.054 -1.725,-7.999 8.942,-8.254 10.19,-14.976 0.791,-4.26 -3.33,-7.742 -2.65,-11.856 0.524,-3.166 4.327,-4.388 3.645,-8.043 -0.712,-3.819 -5.068,-5.058 -5.623,-9.086 -1.878,0.176 -3.199,0.438 -5,1 l 2,6 -10,-5 c -3.743,9.369 7.077,12.05 8,21 -4.072,-3.396 -12.542,-8.521 -13.458,-14 -0.661,-3.949 2.611,-7.536 3.979,-11 1.538,-3.898 1.476,-7.883 1.479,-12 -4.325,2.725 -3.072,8.037 -6.513,11.487 -3.214,3.222 -8.335,2.579 -9.914,7.607 -1.726,5.494 1.415,11.68 -0.585,16.906 -2.404,6.282 -10.017,14.295 -6.385,21.682 1.887,3.836 7.229,1.213 10.392,2.516 6.379,2.627 7.742,10.768 8.005,16.802 -8.193,2.378 -4.839,8.896 1,12 -15.201,-0.675 -0.486,-17.508 -9.275,-24.397 -2.647,-2.075 -7.516,-2.162 -10.072,0.139 -4.418,3.977 -0.943,10.372 -3.68,14.883 -2.127,3.506 -7.483,9.359 -10.991,11.437 -3.917,2.319 -7.603,1.61 -9.982,5.938 -6.512,-4.632 -11.859,-6.093 -15,-14 5.489,0.873 6.977,9.052 12.039,8.534 3.532,-0.361 5.922,-4.037 7.961,-6.535 3.86,-4.728 9.111,-13.183 15,-14.999 -0.703,-5.215 -4.09,-10.797 -3.478,-16 1.097,-9.341 9.06,-16.166 10.735,-25 0.727,-3.837 -2.295,-7.136 -1.157,-10.96 1.914,-6.437 13.4,-10.492 8.717,-18.852 -1.098,-1.96 -3.029,-3.063 -4.832,-4.273 -1.987,-1.333 -4.422,-3.726 -6.892,-3.998 -2.554,-0.282 -4.07,2.23 -5.216,4.102 -2.538,4.144 -4.269,8.33 -7.892,11.727 -3.204,3.004 -10.793,3.295 -12.339,7.401 -1.066,2.83 0.401,5.904 -0.703,8.852 -1.508,4.026 -7.302,7.717 -7.309,12.001 -0.004,2.586 2.269,4.278 3.527,6.285 1.667,2.659 2.5,6.579 2.158,9.71 -0.562,5.158 -4.627,5.937 -7.621,1.942 C 593.136,301.184 591.29,294.448 589,289 Z"
     id="path604"
     sodipodi:nodetypes="cccccsccccccccccscccscccccccccccccccsccccccccccccscssscsccccscccscccscsccccccccccccsccccccccccccccccscccscccccsc" />
  <path
     style="fill:#d8d8d8; stroke:none;"
     d="M1230.67 268.333C1230.22 268.778 1231.28 268.722 1231.33 268.667C1231.78 268.222 1230.72 268.278 1230.67 268.333z"
     id="path628" />
  <path
     style="fill:#c9c9c9;stroke:none"
     d="m 278,299 c -3.684,4.054 -9.482,6.734 -12.633,11.274 -2.879,4.146 -1.681,9.117 -5.367,12.726 0.301,1.25 0.841,2.745 0.924,4.044 0.713,11.12 -8.647,1.21 -12.924,-0.044 -0.81,5.123 -4.798,5.892 -6.953,10.1 -2.248,4.389 1.533,5.475 4.953,4.9 1.458,4.855 6.095,6.136 7.714,10.224 1.039,2.624 -0.632,6.936 -0.714,9.776 -0.899,0.068 -2.227,-0.01 -3.141,0.318 -7.892,2.825 -0.877,8.4 -1.923,13.667 -0.857,4.315 -4.573,6.393 -4.936,11.015 3.511,1.934 3.177,4.668 5.594,7.505 1.497,1.758 3.825,2.491 4.803,4.719 1.043,2.378 0.319,5.158 1.163,7.606 2.342,6.795 6.427,11.653 7.44,19.17 6.61,1.777 10.863,4 18,4 0.655,-1.478 1.183,-2.702 2.107,-4.04 6.387,-9.251 10.57909,-1.48054 18.49909,2.60046 0.663,-2.456 3.20688,-7.65315 4.99088,-9.58915 3.613,-3.924 8.26003,-3.78231 11.80003,-7.76031 3.419,-3.844 1.428,-10.629 3.345,-15.152 2.64,-6.232 13.705,-5.058 19.258,-5.059 v -11 h -6 v -5 c 5.33,0 10.667,1.26975 15.996,1.17675 2.295,-0.04 5.069,-1.12275 6.686,-3.07075 1.928,-2.32 1.316,-6.311 1.318,-9.106 5.146,1.521 11.84275,2.31306 17.18175,2.31306 11.441,0 21.44725,-2.32106 32.81825,-2.31306 0.872,-5.904 3.438,-11.276 5,-17 -3.546,1.548 -6.959,4.624 -11,4.622 -4.591,-0.002 -7.597,-3.487 -10.424,-6.612 -4.499,-4.972 -8.465,-9.782 -12.576,-15.01 -0.986,1.479 -1,1.203 -1,3 -3.223,-1.174 -6.447,-2.421 -9.91,-1.424 -8.274,2.381 -14.86,11.181 -24.09,10.798 -4.327,-0.179 -13.761,3.281 -13.222,-4.378 0.359,-5.111 6.155,-6.016 8.065,-10.035 0.945,-1.988 -0.317,-3.994 -0.04,-6.049 0.315,-2.333 1.628,-4.615 2.197,-6.912 h 5 v -8 l -7,1 c -1.827,-5.609 -8.591,-7.284 -14,-8 -0.457,-2.092 -0.783,-4.081 -3.228,-4.64 -3.395,-0.778 -6.299,2.09 -9.602,1.666 -2.255,-0.289 -4.102,-2.22 -6.209,-2.999 -2.575,-0.952 -5.389,-0.939 -7.871,-2.183 -1.757,-0.88 -3.739,-3.32 -5.901,-2.927 -2.575,0.469 -2.805,4.186 -3.698,6.068 -2.299,4.847 -5.846,5.657 -10.491,4.015 z"
     id="path646"
     sodipodi:nodetypes="ccccccccccscccccccccccccccsccsccccccccccccccccccscccc" />
  <path
     style="fill:#dedede;stroke:none"
     d="m 412,346 c -0.217,6.219 -3.457,11.776 -4,18 -16.096,-0.044 -34.025,3.803 -50,0 -0.009,2.726 0.371,6.082 -1.318,8.427 C 353.033,377.493 339.535,375 334,375 v 5 h 6 v 11 c -4.825,0 -15.733,-1.304 -18.821,3.318 -3.266,4.889 0.075,12.554 -4.497,16.893 -5.925,5.622 -17.52,5.336 -16.155,16.734 0.638,5.334 10.082,8.545 12.813,13.141 1.966,3.308 -1.073,7.359 -1.34,10.914 h 5 c 0.404,5.188 3.963,5.888 6.316,10.058 2.219,3.935 1.073,13.283 4.287,15.758 4.554,3.508 7.198,-3.72 10.505,-5.253 5.678,-2.631 13.823,-1.389 19.891,-1.284 4.671,0.08 5.729,3.631 9.259,5.697 2.025,1.186 4.489,0.997 6.742,1.024 0.072,6.069 3.297,6.351 5.398,11.213 2.868,6.635 3.264,16.041 10.111,20.758 3.317,2.286 7.768,-0.298 11.398,0.347 3.551,0.631 4.664,3.939 7.471,5.674 1.632,1.007 3.673,0.982 5.279,2.031 3.496,2.282 3.128,6.685 5.281,9.828 2.398,3.502 5.597,1.855 8.853,3.341 3.232,1.475 4.219,4.604 8.224,4.705 10.689,0.271 8.695,-10.758 1.985,-14.897 l 1,-5 c -1.933,-3.583 1.013,-6.375 2,-10 -2.399,-1.045 -6.663,-1.88 -8.052,-4.299 -0.614,-1.068 -0.576,-2.357 0.043,-3.42 2.057,-3.536 4.476,-9.776 7.326,-12.516 3.239,-3.114 6.774,-2.101 10.378,-3.838 3.477,-1.675 4.543,-5.494 5.305,-8.927 -6.261,0.791 -24.696,-0.456 -17.971,-11.851 2.912,-4.935 7.398,-1.989 5.971,2.851 3.964,1.764 10.499,3.703 13.977,-0.603 1.905,-2.358 2.42,-7.462 3.023,-10.397 -10.77,-1.504 -13.254,-16.327 -1,-17 l 2,-6 c 4.559,0.845 8.122,1.245 9,-4 1.701,-0.088 3.368,-0.098 5.005,-0.653 8.759,-2.968 2.547,-14.223 6.062,-20.03 1.723,-2.846 6.02031,-2.16335 8.45531,-4.10935 5.408,-4.321 11.89622,-14.627 14.13422,-21.142 -7.226,-0.065 -10.58053,-4.03965 -16.82653,-6.36265 -5.235,-1.947 -11.368,0.012 -16.787,-0.85 C 467.171,372.236 464.911,368.828 461,368 v -6 h -11 c -0.736,4.711 -6.164,10.262 -10,5 -5.47,0.97 -10.172,-0.146 -15,3 v -5 h -4 c 2.046,-3.004 0.168,-4.856 1.269,-7.92 0.691,-1.925 2.46,-3.378 3.436,-5.166 2.624,-4.802 3.291,-9.552 3.295,-14.914 -8.288,0.028 -10.854,4.124 -17,9 z"
     id="path684"
     sodipodi:nodetypes="ccccccccccccccccccccccscccsccccccscccccccccccccscccccccccccc" />
  <path
     style="fill:#f3f3f3; stroke:none;"
     d="M161 408C162.396 411.12 163.511 415.843 166 418C164.024 420.716 158.402 424.481 158.596 428.119C158.773 431.422 162.441 432.255 165.001 432.944C170.672 434.472 174.958 437.72 181 438L181 443C185.513 445.008 187.212 445.05 192 444C190.306 438.354 183.351 438.3 181.617 433.116C180.795 430.662 182.752 427.517 182.943 424.996C183.357 419.529 182.288 414.921 180 410L178 410L177 414C171.988 410.837 166.886 408.797 161 408z"
     id="path702" />
  <path
     style="fill:#e4e4e4; stroke:none;"
     d="M284 424C287.385 421.713 289.925 421.048 294 421C289.869 419.267 285.77 419.598 284 424z"
     id="path704" />
  <path
     style="fill:#f3f3f3;stroke:none"
     d="m 280,430 c -6.929,-10e-4 -11.51,-3.021 -18,-4 l 1,4 -8,1 v 3 h -5 c -0.605,2.996 -2.072,7.765 -5.961,7.794 -2.438,0.018 -3.667,-2.617 -5.493,-3.775 C 234.097,435.198 228.638,435.045 224,437 v 3 c 3.457,1.582 6.15,2.6 8,6 -7.348,-0.066 -11.338,-4.19 -18,-6 0.112,3.866 1.23,7.252 2,11 -2.84,-0.607 -6.048,-2.513 -8.961,-2.343 -2.497,0.145 -4.469,3.181 -6.916,2.716 -4.391,-0.834 -3.625,-6.192 -9.123,-5.373 2.818,15.18 4.068,30.709 6,46 2.694,1.299 4.105,2.668 6,5 4.712,-3.302 8.932,-5.065 12,1 5.469,-0.864 7.279,-5.68 12,-8 -0.004,-5.618 -1.635,-11.042 3,-15 2.002,2.739 4.874,-0.267 7.611,2.222 3.919,3.563 2.815,8.854 5.866,12.283 2.812,3.159 7.735,2.495 11.523,2.495 -1.128,8.937 1.422,12.854 4.277,21 0.798,2.276 0.628,4.784 1.746,6.961 1.967,3.828 5.065,5.611 5.977,10.039 4.98,-0.626 8.36,-5.024 13.015,-5.478 2.347,-0.228 4.687,0.951 6.985,1.269 4.242,0.587 8.724,0.209 13,0.209 -0.501,-2.686 -0.883,-5.27 -1,-8 l 5,2 c 0.415,-5.258 2.217,-11.58 0.682,-16.787 -0.888,-3.014 -5.423,-4.053 -5.48,-7.264 -0.063,-3.575 5.226,-6.76 5.798,-10.949 6.325,-2.099 3.873,-8.395 7.717,-12.436 3.013,-3.168 11.52589,-3.182 15.38389,-5.564 C 325.81689,461.446 317.888,457.579 317,452 h -5 c 0.473,-3.176 3.325,-6.788 2.339,-9.975 -1.486,-4.806 -7.631,-7.806 -11.231,-10.824 -2.713,-2.274 -6.32472,-9.30095 -9.14372,-11.46695 C 287.33428,414.64105 282.035,422.884 280,430 Z"
     id="path706"
     sodipodi:nodetypes="ccccccccccccccccccccccccccccscccccccccccccc" />
  <path
     style="fill:#dedede; stroke:none;"
     d="M1130.33 424.667C1130.28 424.722 1130.22 425.778 1130.67 425.333C1130.72 425.278 1130.78 424.222 1130.33 424.667z"
     id="path712" />
  <path
     style="fill:#bababa; stroke:none;"
     d="M1139 428L1140 437L1135 437C1138.56 444.763 1144.2 450.612 1147 459C1164.58 462.182 1169.8 482.026 1178.07 494.91C1181.47 500.192 1187.14 503.557 1190.53 509C1195.08 516.313 1198.2 525.983 1207 529C1205.43 524.362 1200.99 512.939 1210.98 515.164C1212.66 515.538 1214.38 516.429 1216 517C1213.76 509.419 1205.2 509.632 1199 506.672C1192.28 503.46 1189.09 497.801 1186.79 491C1185.58 487.449 1182.58 477.855 1189.06 477.241C1192.77 476.889 1197.06 479.795 1201 480C1190.57 469.359 1176.04 464.732 1165.04 454.711C1158.81 449.039 1155.62 441.063 1149.82 435.105C1146.77 431.978 1142.82 430.011 1139 428z"
     id="path714" />
  <path
     style="fill:#dbdbdb; stroke:none;"
     d="M227 490C221.954 491.493 220.122 496.528 215 498C212.726 490.512 202.737 493.118 204.569 500.911C206.009 507.034 211.071 511.059 214.441 516C217.697 520.774 220.351 528.25 220 534C223.042 535.285 225.703 535.85 229 536C229.676 539.949 233.384 541.392 234.254 545.043C234.999 548.171 232.282 550.892 232.287 554C232.297 559.957 236.783 565.613 236.986 572C237.062 574.397 236.691 577.543 238.603 579.382C241.481 582.148 250.171 580 254 580C254 573.159 251.919 562.208 255.028 556C257.008 552.045 261.836 549.95 263.381 545.83C265.672 539.722 259.196 534.939 267 531C266.689 525.362 263.388 523.681 261.023 518.985C259.918 516.792 260.078 514.286 259.277 512C256.543 504.201 254.333 500.517 255 492C250.654 491.985 245.56 492.093 243.027 487.812C240.947 484.295 241.467 480.447 238.275 477.283C235.683 474.715 232.793 476.47 230 475C224.517 478.034 226.985 484.573 227 490z"
     id="path728" />
</svg>
